<?xml version="1.0" standalone="no"?>
<!DOCTYPE svg PUBLIC "-//W3C//DTD SVG 20010904//EN"
 "http://www.w3.org/TR/2001/REC-SVG-20010904/DTD/svg10.dtd">
<svg version="1.0" xmlns="http://www.w3.org/2000/svg"
 width="1792.000000pt" height="1792.000000pt" viewBox="0 0 1792.000000 1792.000000"
 preserveAspectRatio="xMidYMid meet">
<metadata>
Created by potrace 1.11, written by Peter Selinger 2001-2013
</metadata>
<g transform="translate(0.000000,1792.000000) scale(0.100000,-0.100000)"
fill="#000000" stroke="none">
<path d="M8725 17782 c-132 -77 -264 -153 -293 -170 -29 -18 -55 -32 -58 -32
-3 0 -30 -16 -60 -35 -30 -19 -57 -35 -59 -35 -3 0 -38 -20 -78 -44 -40 -25
-93 -55 -118 -69 -24 -13 -132 -75 -239 -137 -175 -101 -499 -289 -621 -359
-54 -31 -322 -186 -383 -221 -23 -14 -123 -71 -222 -128 -98 -57 -186 -108
-194 -113 -8 -5 -96 -55 -195 -112 -99 -57 -256 -148 -350 -202 -93 -54 -197
-114 -230 -133 -33 -19 -73 -42 -90 -52 -73 -42 -368 -212 -450 -260 -49 -29
-108 -62 -130 -75 -94 -53 -128 -72 -265 -151 -80 -47 -152 -89 -160 -94 -8
-6 -22 -13 -30 -17 -8 -3 -39 -21 -68 -40 -29 -18 -54 -33 -56 -33 -3 0 -150
-84 -211 -121 -16 -10 -41 -24 -55 -32 -14 -7 -99 -56 -190 -109 -91 -52 -185
-107 -210 -121 -25 -14 -126 -72 -225 -129 -568 -329 -759 -439 -805 -464 -19
-10 -36 -22 -38 -26 -2 -5 -7 -8 -12 -8 -5 0 -54 -27 -110 -60 -56 -33 -103
-60 -105 -60 -1 0 -44 -25 -94 -55 -51 -30 -94 -55 -96 -55 -2 0 -45 -25 -96
-55 -50 -30 -93 -55 -94 -55 -2 0 -76 -43 -166 -96 -90 -53 -173 -100 -184
-105 -11 -5 -123 -70 -250 -144 l-230 -134 0 -4482 0 -4482 72 -43 c40 -23 96
-56 125 -72 29 -16 91 -52 136 -78 46 -27 100 -58 120 -70 41 -23 215 -123
682 -394 173 -101 330 -190 347 -199 18 -8 33 -19 33 -23 0 -4 5 -8 11 -8 6 0
64 -31 128 -69 64 -37 134 -78 156 -90 22 -12 56 -31 75 -42 19 -12 78 -46
130 -76 52 -29 102 -58 110 -63 8 -5 71 -41 140 -81 69 -40 231 -134 360 -209
129 -75 242 -139 250 -143 8 -4 29 -15 45 -26 26 -16 731 -424 840 -486 22
-13 272 -157 555 -320 283 -164 529 -305 545 -315 17 -9 219 -126 450 -260
231 -133 440 -254 465 -268 25 -13 70 -39 100 -57 30 -18 72 -42 93 -54 50
-28 67 -38 322 -186 121 -70 236 -136 255 -147 19 -11 49 -28 65 -38 17 -10
75 -44 130 -75 152 -87 149 -86 320 -185 88 -51 176 -101 195 -112 19 -11 49
-27 65 -37 33 -20 236 -137 275 -158 14 -8 43 -25 65 -39 101 -62 96 -62 172
-17 71 43 173 102 233 135 47 27 276 160 320 187 19 11 42 24 50 28 8 4 47 26
85 48 39 23 90 53 115 67 60 34 98 56 205 118 50 29 115 66 145 83 30 16 62
36 71 43 8 8 18 14 21 14 6 0 48 24 378 215 74 43 149 86 165 95 17 9 65 38
108 64 43 25 80 46 82 46 2 0 49 27 105 60 56 33 104 60 106 60 2 0 23 12 47
27 23 15 51 32 62 38 25 14 302 174 590 340 121 70 234 135 250 145 87 50 656
378 820 473 105 60 280 162 390 225 110 63 205 118 210 122 6 4 31 19 57 33
41 23 187 107 373 215 33 19 77 44 97 56 69 39 263 151 280 161 116 67 282
163 318 183 25 14 61 35 80 47 19 12 58 34 85 50 48 26 277 158 948 547 170
98 312 178 318 178 5 0 9 5 9 10 0 6 4 10 9 10 5 0 101 53 214 118 112 66 211
122 218 126 16 8 40 22 91 54 l36 23 0 4479 0 4479 -77 45 c-372 215 -531 307
-561 324 -19 10 -107 61 -195 112 -88 51 -203 117 -255 147 -52 30 -102 58
-110 63 -50 30 -172 101 -210 122 -25 14 -99 57 -165 95 -66 39 -140 81 -165
95 -25 14 -85 49 -135 78 -49 29 -106 62 -125 72 -76 44 -630 364 -710 411
-47 27 -105 61 -130 75 -68 38 -295 169 -385 222 -44 26 -100 59 -125 72 -25
14 -233 134 -462 266 -230 133 -430 248 -445 257 -16 9 -44 25 -63 36 -19 12
-172 100 -340 197 -168 96 -372 214 -455 262 -156 91 -777 450 -830 480 -16 9
-55 32 -85 50 -30 17 -84 48 -120 67 -36 20 -72 42 -81 49 -8 8 -18 14 -21 14
-6 0 -409 231 -465 266 -13 8 -24 13 -25 12 -2 -1 -23 11 -48 28 -25 17 -50
33 -55 35 -6 2 -57 31 -113 64 -57 33 -124 72 -150 86 -26 14 -78 44 -116 67
-37 23 -70 42 -72 42 -1 0 -64 36 -140 80 -75 44 -138 80 -141 80 -2 0 -25 14
-51 32 -26 18 -49 32 -52 32 -3 -1 -22 10 -42 22 -21 13 -39 24 -40 24 -2 0
-111 -62 -243 -138z"/>
</g>
</svg>
